<svg width="80" height="100" viewBox="0 0 80 100" fill="none" xmlns="http://www.w3.org/2000/svg">
  <ellipse cx="40" cy="97" rx="20" ry="3.5" fill="#00D4FF" opacity="0.1"/>
  <rect x="16" y="40" width="48" height="34" rx="12" fill="#008BAA"/>
  <rect x="26" y="56" width="28" height="14" rx="4" fill="#007A99" opacity="0.7"/>
  <rect x="10" y="48" width="28" height="18" rx="3" fill="#1A1A1A" stroke="#00D4FF" stroke-width="0.8"/>
  <rect x="11" y="49" width="26" height="14" rx="2" fill="#0A2A30"/>
  <rect x="13" y="51" width="14" height="1.5" rx="1" fill="#00D4FF" opacity="0.7"/>
  <rect x="13" y="54" width="10" height="1.5" rx="1" fill="#4ADE80" opacity="0.6"/>
  <rect x="13" y="57" width="18" height="1.5" rx="1" fill="#00D4FF" opacity="0.5"/>
  <rect x="13" y="60" width="8" height="1.5" rx="1" fill="#F5E642" opacity="0.5"/>
  <rect x="8" y="66" width="32" height="3" rx="1.5" fill="#2A2A2A"/>
  <rect x="14" y="8" width="52" height="46" rx="22" fill="#00D4FF"/>
  <rect x="22" y="24" width="10" height="11" rx="5" fill="#1A1A1A"/>
  <rect x="48" y="24" width="10" height="11" rx="5" fill="#1A1A1A"/>
  <rect x="25" y="25" width="4" height="5" rx="2" fill="white"/>
  <rect x="51" y="25" width="4" height="5" rx="2" fill="white"/>
  <rect x="21" y="20" width="12" height="3" rx="1.5" fill="#008BAA"/>
  <rect x="47" y="20" width="12" height="3" rx="1.5" fill="#008BAA"/>
  <path d="M33 38 Q40 42 47 38" stroke="#008BAA" stroke-width="2" stroke-linecap="round" fill="none"/>
  <ellipse cx="21" cy="36" rx="5" ry="3" fill="#00C8EE" opacity="0.4"/>
  <ellipse cx="59" cy="36" rx="5" ry="3" fill="#00C8EE" opacity="0.4"/>
  <rect x="4" y="52" width="14" height="10" rx="5" fill="#008BAA"/>
  <rect x="62" y="44" width="14" height="10" rx="5" fill="#008BAA"/>
  <rect x="24" y="70" width="12" height="22" rx="6" fill="#008BAA"/>
  <rect x="44" y="70" width="12" height="22" rx="6" fill="#008BAA"/>
  <rect x="20" y="86" width="16" height="8" rx="4" fill="#006688"/>
  <rect x="44" y="86" width="16" height="8" rx="4" fill="#006688"/>
</svg>
