<svg width="80" height="100" viewBox="0 0 80 100" fill="none" xmlns="http://www.w3.org/2000/svg">
  <ellipse cx="40" cy="97" rx="20" ry="3.5" fill="#FF8C2B" opacity="0.1"/>
  <line x1="2" y1="44" x2="13" y2="44" stroke="#FF8C2B" stroke-width="2" stroke-linecap="round" opacity="0.45"/>
  <line x1="1" y1="51" x2="11" y2="51" stroke="#FF8C2B" stroke-width="2" stroke-linecap="round" opacity="0.3"/>
  <line x1="3" y1="58" x2="12" y2="58" stroke="#FF8C2B" stroke-width="2" stroke-linecap="round" opacity="0.18"/>
  <rect x="20" y="42" width="42" height="32" rx="10" fill="#CC5500"/>
  <rect x="15" y="8" width="50" height="46" rx="22" fill="#FF8C2B"/>
  <rect x="21" y="22" width="12" height="13" rx="6" fill="#1A1A1A"/>
  <rect x="47" y="22" width="12" height="13" rx="6" fill="#1A1A1A"/>
  <rect x="24" y="23" width="5" height="6" rx="2.5" fill="white"/>
  <rect x="50" y="23" width="5" height="6" rx="2.5" fill="white"/>
  <rect x="24" y="23" width="2.5" height="2.5" rx="1.2" fill="white" opacity="0.9"/>
  <rect x="50" y="23" width="2.5" height="2.5" rx="1.2" fill="white" opacity="0.9"/>
  <rect x="20" y="18" width="11" height="3" rx="1.5" fill="#CC5500" transform="rotate(10 25 19)"/>
  <rect x="49" y="18" width="11" height="3" rx="1.5" fill="#CC5500" transform="rotate(-10 54 19)"/>
  <ellipse cx="40" cy="39" rx="6" ry="5" fill="#1A1A1A"/>
  <ellipse cx="40" cy="40" rx="4" ry="3" fill="#CC3300"/>
  <ellipse cx="62" cy="18" rx="3" ry="4" fill="#FF8C2B" opacity="0.5"/>
  <ellipse cx="62" cy="17" rx="1.5" ry="1" fill="white" opacity="0.4"/>
  <rect x="4" y="48" width="18" height="9" rx="4" fill="#FF8C2B"/>
  <rect x="56" y="38" width="16" height="9" rx="4" fill="#FF8C2B"/>
  <circle cx="74" cy="28" r="9" stroke="#FF8C2B" stroke-width="2.5" fill="rgba(255,140,43,0.08)"/>
  <line x1="80" y1="34" x2="86" y2="40" stroke="#FF8C2B" stroke-width="3" stroke-linecap="round"/>
  <circle cx="74" cy="28" r="3.5" fill="#FF4444"/>
  <rect x="72" y="27" width="1.5" height="1.5" rx="0.5" fill="white" opacity="0.7"/>
  <rect x="24" y="70" width="11" height="22" rx="5" fill="#CC5500" transform="rotate(12 29 81)"/>
  <rect x="46" y="70" width="11" height="22" rx="5" fill="#CC5500" transform="rotate(-15 51 81)"/>
  <rect x="18" y="84" width="15" height="7" rx="3.5" fill="#AA3300" transform="rotate(12 25 87)"/>
  <rect x="47" y="82" width="15" height="7" rx="3.5" fill="#AA3300" transform="rotate(-15 54 85)"/>
</svg>
