<svg width="80" height="100" viewBox="0 0 80 100" fill="none" xmlns="http://www.w3.org/2000/svg">
  <ellipse cx="40" cy="97" rx="20" ry="3.5" fill="#A0A8B0" opacity="0.1"/>
  <rect x="18" y="40" width="44" height="34" rx="10" fill="#606870"/>
  <rect x="18" y="62" width="44" height="8" rx="2" fill="#505860"/>
  <rect x="26" y="62" width="8" height="8" fill="#404850"/>
  <rect x="40" y="62" width="8" height="8" fill="#404850"/>
  <rect x="14" y="8" width="52" height="46" rx="22" fill="#A0A8B0"/>
  <rect x="12" y="12" width="56" height="14" rx="7" fill="#606870"/>
  <rect x="8" y="18" width="64" height="8" rx="4" fill="#707880"/>
  <rect x="22" y="28" width="10" height="10" rx="5" fill="#1A1A1A"/>
  <rect x="48" y="28" width="10" height="10" rx="5" fill="#1A1A1A"/>
  <rect x="25" y="29" width="4" height="5" rx="2" fill="white"/>
  <rect x="51" y="29" width="4" height="5" rx="2" fill="white"/>
  <rect x="21" y="24" width="12" height="3" rx="1.5" fill="#606870"/>
  <rect x="47" y="24" width="12" height="3" rx="1.5" fill="#606870"/>
  <path d="M33 40 Q40 44 47 41" stroke="#606870" stroke-width="2" stroke-linecap="round" fill="none"/>
  <ellipse cx="21" cy="38" rx="5" ry="3" fill="#B8C0C8" opacity="0.4"/>
  <ellipse cx="59" cy="38" rx="5" ry="3" fill="#B8C0C8" opacity="0.4"/>
  <rect x="4" y="44" width="16" height="10" rx="5" fill="#606870"/>
  <rect x="60" y="36" width="5" height="20" rx="2.5" fill="#808890" transform="rotate(25 62 46)"/>
  <ellipse cx="63" cy="34" rx="6" ry="5" fill="none" stroke="#808890" stroke-width="3" transform="rotate(25 63 34)"/>
  <rect x="60" y="44" width="16" height="10" rx="5" fill="#606870"/>
  <rect x="24" y="70" width="12" height="22" rx="6" fill="#606870"/>
  <rect x="44" y="70" width="12" height="22" rx="6" fill="#606870"/>
  <rect x="20" y="86" width="16" height="8" rx="4" fill="#404850"/>
  <rect x="44" y="86" width="16" height="8" rx="4" fill="#404850"/>
</svg>
