<svg width="80" height="100" viewBox="0 0 80 100" fill="none" xmlns="http://www.w3.org/2000/svg">
  <ellipse cx="40" cy="97" rx="20" ry="3.5" fill="#D8D4CC" opacity="0.1"/>
  <rect x="18" y="40" width="44" height="34" rx="10" fill="#B8B4AC"/>
  <rect x="14" y="8" width="52" height="46" rx="22" fill="#D8D4CC"/>
  <rect x="22" y="24" width="9" height="11" rx="4.5" fill="#1A1A1A"/>
  <rect x="49" y="24" width="9" height="11" rx="4.5" fill="#1A1A1A"/>
  <rect x="25" y="22" width="4" height="5" rx="2" fill="white"/>
  <rect x="52" y="22" width="4" height="5" rx="2" fill="white"/>
  <rect x="21" y="20" width="11" height="3" rx="1.5" fill="#9A9890"/>
  <rect x="48" y="18" width="11" height="3" rx="1.5" fill="#9A9890" transform="rotate(-7 53 19)"/>
  <path d="M32 38 Q40 43 48 38" stroke="#9A9890" stroke-width="2" stroke-linecap="round" fill="none"/>
  <ellipse cx="21" cy="36" rx="5" ry="3" fill="#C8C4BC" opacity="0.5"/>
  <ellipse cx="59" cy="36" rx="5" ry="3" fill="#C8C4BC" opacity="0.5"/>
  <rect x="4" y="44" width="16" height="10" rx="5" fill="#B8B4AC"/>
  <rect x="60" y="42" width="16" height="10" rx="5" fill="#B8B4AC"/>
  <rect x="62" y="28" width="15" height="20" rx="3" fill="#222222" stroke="#D8D4CC" stroke-width="0.8" opacity="0.9"/>
  <rect x="67" y="25" width="7" height="5" rx="2" fill="#D8D4CC" opacity="0.7"/>
  <rect x="64" y="33" width="11" height="1.5" rx="1" fill="#D8D4CC" opacity="0.4"/>
  <rect x="64" y="37" width="8" height="1.5" rx="1" fill="#D8D4CC" opacity="0.3"/>
  <rect x="64" y="41" width="9" height="1.5" rx="1" fill="#D8D4CC" opacity="0.3"/>
  <rect x="24" y="70" width="12" height="22" rx="6" fill="#9A9890"/>
  <rect x="44" y="70" width="12" height="22" rx="6" fill="#9A9890"/>
  <rect x="20" y="86" width="16" height="8" rx="4" fill="#7A7870"/>
  <rect x="44" y="86" width="16" height="8" rx="4" fill="#7A7870"/>
</svg>
