<svg width="80" height="100" viewBox="0 0 80 100" fill="none" xmlns="http://www.w3.org/2000/svg">
  <ellipse cx="40" cy="97" rx="20" ry="3.5" fill="#F5E642" opacity="0.1"/>
  <rect x="18" y="40" width="44" height="34" rx="10" fill="#C8BC00"/>
  <rect x="14" y="8" width="52" height="46" rx="22" fill="#F5E642"/>
  <rect x="20" y="23" width="15" height="12" rx="6" fill="none" stroke="#C8BC00" stroke-width="2"/>
  <rect x="45" y="23" width="15" height="12" rx="6" fill="none" stroke="#C8BC00" stroke-width="2"/>
  <line x1="35" y1="29" x2="45" y2="29" stroke="#C8BC00" stroke-width="2"/>
  <rect x="24" y="25" width="6" height="7" rx="3" fill="#1A1A1A"/>
  <rect x="49" y="25" width="6" height="7" rx="3" fill="#1A1A1A"/>
  <rect x="25" y="26" width="3" height="3" rx="1.5" fill="white"/>
  <rect x="50" y="26" width="3" height="3" rx="1.5" fill="white"/>
  <rect x="21" y="19" width="11" height="3" rx="1.5" fill="#C8BC00"/>
  <rect x="48" y="17" width="11" height="3" rx="1.5" fill="#C8BC00" transform="rotate(-10 53 18)"/>
  <path d="M33 38 Q42 41 49 37" stroke="#C8BC00" stroke-width="2" stroke-linecap="round" fill="none"/>
  <ellipse cx="21" cy="36" rx="5" ry="3" fill="#E8DC00" opacity="0.4"/>
  <ellipse cx="59" cy="36" rx="5" ry="3" fill="#E8DC00" opacity="0.4"/>
  <rect x="4" y="44" width="16" height="10" rx="5" fill="#C8BC00"/>
  <rect x="60" y="42" width="16" height="10" rx="5" fill="#C8BC00"/>
  <rect x="2" y="30" width="15" height="20" rx="3" fill="#222222" stroke="#F5E642" stroke-width="0.8" opacity="0.9"/>
  <path d="M6 37 L8 40 L13 34" stroke="#4ADE80" stroke-width="1.5" stroke-linecap="round" stroke-linejoin="round" fill="none"/>
  <path d="M6 43 L8 46 L13 40" stroke="#4ADE80" stroke-width="1.5" stroke-linecap="round" stroke-linejoin="round" fill="none"/>
  <rect x="24" y="70" width="12" height="22" rx="6" fill="#C8BC00"/>
  <rect x="44" y="70" width="12" height="22" rx="6" fill="#C8BC00"/>
  <rect x="20" y="86" width="16" height="8" rx="4" fill="#A89C00"/>
  <rect x="44" y="86" width="16" height="8" rx="4" fill="#A89C00"/>
</svg>
