<svg width="80" height="100" viewBox="0 0 80 100" fill="none" xmlns="http://www.w3.org/2000/svg">
  <ellipse cx="40" cy="97" rx="22" ry="3.5" fill="#FF4444" opacity="0.12"/>
  <rect x="14" y="38" width="52" height="36" rx="10" fill="#CC1111"/>
  <path d="M28 44 L40 40 L52 44 L52 60 Q40 67 28 60 Z" fill="#FF4444" stroke="#FF6666" stroke-width="1"/>
  <path d="M32 47 L40 44 L48 47 L48 58 Q40 63 32 58 Z" fill="#CC1111"/>
  <path d="M35 53 L38 57 L46 48" stroke="#FF8080" stroke-width="2" stroke-linecap="round" stroke-linejoin="round" fill="none"/>
  <rect x="16" y="6" width="48" height="44" rx="20" fill="#FF4444"/>
  <rect x="21" y="20" width="12" height="12" rx="5" fill="#1A1A1A"/>
  <rect x="47" y="20" width="12" height="12" rx="5" fill="#1A1A1A"/>
  <rect x="24" y="22" width="5" height="6" rx="2.5" fill="white"/>
  <rect x="50" y="22" width="5" height="6" rx="2.5" fill="white"/>
  <rect x="19" y="16" width="16" height="4" rx="2" fill="#AA1111"/>
  <rect x="45" y="16" width="16" height="4" rx="2" fill="#AA1111"/>
  <rect x="29" y="37" width="22" height="3.5" rx="1.75" fill="#AA1111"/>
  <rect x="1" y="42" width="15" height="11" rx="5" fill="#FF4444"/>
  <rect x="64" y="42" width="15" height="11" rx="5" fill="#FF4444"/>
  <rect x="1" y="51" width="13" height="11" rx="4" fill="#CC1111"/>
  <rect x="66" y="51" width="13" height="11" rx="4" fill="#CC1111"/>
  <rect x="19" y="70" width="14" height="22" rx="6" fill="#CC1111"/>
  <rect x="47" y="70" width="14" height="22" rx="6" fill="#CC1111"/>
  <rect x="13" y="86" width="18" height="8" rx="4" fill="#AA1111"/>
  <rect x="49" y="86" width="18" height="8" rx="4" fill="#AA1111"/>
</svg>
