<svg width="420" height="280" viewBox="0 0 420 280" fill="none" xmlns="http://www.w3.org/2000/svg">

  <!-- ── CONSTELLATION MARK ── -->
  <g transform="translate(40, 10) scale(2.2)">
    <!-- Connections -->
    <line x1="18" y1="12" x2="52" y2="8"   stroke="#D8D4CC" stroke-width="1.2" stroke-linecap="round" opacity="0.55"/>
    <line x1="18" y1="12" x2="14" y2="44"  stroke="#D8D4CC" stroke-width="1.2" stroke-linecap="round" opacity="0.25"/>
    <line x1="52" y1="8"  x2="72" y2="28"  stroke="#F5E642" stroke-width="1.2" stroke-linecap="round" opacity="0.5"/>
    <line x1="52" y1="8"  x2="62" y2="48"  stroke="#F5E642" stroke-width="1.2" stroke-linecap="round" opacity="0.42"/>
    <line x1="72" y1="28" x2="62" y2="48"  stroke="#4A9EFF" stroke-width="1.2" stroke-linecap="round" opacity="0.52"/>
    <line x1="62" y1="48" x2="38" y2="58"  stroke="#00D4FF" stroke-width="1.2" stroke-linecap="round" opacity="0.52"/>
    <line x1="62" y1="48" x2="14" y2="44"  stroke="#00D4FF" stroke-width="1.2" stroke-linecap="round" opacity="0.22"/>
    <line x1="62" y1="48" x2="76" y2="60"  stroke="#00D4FF" stroke-width="1.2" stroke-linecap="round" opacity="0.2"/>
    <line x1="38" y1="58" x2="14" y2="44"  stroke="#FF7B6B" stroke-width="1.2" stroke-linecap="round" opacity="0.32"/>
    <line x1="38" y1="58" x2="28" y2="72"  stroke="#FF7B6B" stroke-width="1.2" stroke-linecap="round" opacity="0.46"/>
    <line x1="28" y1="72" x2="58" y2="72"  stroke="#FF4444" stroke-width="1.2" stroke-linecap="round" opacity="0.56"/>
    <line x1="58" y1="72" x2="76" y2="60"  stroke="#4ADE80" stroke-width="1.2" stroke-linecap="round" opacity="0.5"/>
    <!-- Nodes -->
    <circle cx="18" cy="12" r="4.5" fill="#D8D4CC"/>
    <circle cx="52" cy="8"  r="4"   fill="#F5E642"/>
    <circle cx="72" cy="28" r="3.5" fill="#4A9EFF"/>
    <circle cx="62" cy="48" r="5"   fill="#00D4FF"/>
    <circle cx="38" cy="58" r="4"   fill="#FF7B6B"/>
    <circle cx="14" cy="44" r="3"   fill="#FF8C2B"/>
    <circle cx="28" cy="72" r="4.5" fill="#FF4444"/>
    <circle cx="58" cy="72" r="4.5" fill="#4ADE80"/>
    <circle cx="76" cy="60" r="3.5" fill="#A0A8B0"/>
  </g>

  <!-- ── TASUKI TEXT (next to constellation) ── -->
  <text x="250" y="105" font-family="Georgia, 'Times New Roman', serif" font-size="48" font-weight="bold" font-style="italic" fill="#D8D4CC">tasuki</text>

  <!-- ── LEGEND (3 columns × 3 rows) ── -->
  <!-- Row 1 -->
  <circle cx="20"  cy="186" r="5" fill="#D8D4CC"/>
  <text x="30"  y="191" font-family="monospace" font-size="11" fill="#D8D4CC" opacity="0.7">planner</text>
  <circle cx="150" cy="186" r="5" fill="#F5E642"/>
  <text x="160" y="191" font-family="monospace" font-size="11" fill="#F5E642" opacity="0.7">qa</text>
  <circle cx="270" cy="186" r="5" fill="#4A9EFF"/>
  <text x="280" y="191" font-family="monospace" font-size="11" fill="#4A9EFF" opacity="0.7">db-architect</text>

  <!-- Row 2 -->
  <circle cx="20"  cy="210" r="5" fill="#00D4FF"/>
  <text x="30"  y="215" font-family="monospace" font-size="11" fill="#00D4FF" opacity="0.7">backend-dev</text>
  <circle cx="150" cy="210" r="5" fill="#FF7B6B"/>
  <text x="160" y="215" font-family="monospace" font-size="11" fill="#FF7B6B" opacity="0.7">frontend-dev</text>
  <circle cx="270" cy="210" r="5" fill="#FF8C2B"/>
  <text x="280" y="215" font-family="monospace" font-size="11" fill="#FF8C2B" opacity="0.7">debugger</text>

  <!-- Row 3 -->
  <circle cx="20"  cy="234" r="5" fill="#FF4444"/>
  <text x="30"  y="239" font-family="monospace" font-size="11" fill="#FF4444" opacity="0.7">security</text>
  <circle cx="150" cy="234" r="5" fill="#4ADE80"/>
  <text x="160" y="239" font-family="monospace" font-size="11" fill="#4ADE80" opacity="0.7">reviewer</text>
  <circle cx="270" cy="234" r="5" fill="#A0A8B0"/>
  <text x="280" y="239" font-family="monospace" font-size="11" fill="#A0A8B0" opacity="0.7">devops</text>

</svg>
